HIERARCHY
ROOT pelvis
{
  OFFSET 0 100 0
  CHANNELS 6 Xposition Yposition Zposition Zrotation Xrotation Yrotation
  JOINT pelvis_right_femur
  {
    OFFSET -10.78128 -3.44521 -0.5502486
    CHANNELS 3 Zrotation Xrotation Yrotation
    JOINT right_femur_tibia
    {
      OFFSET -0.8047443 -44.0398 -0.1307829
      CHANNELS 3 Zrotation Xrotation Yrotation
      JOINT right_tibia_foot
      {
        OFFSET 3.006224 -47.83518 -5
        CHANNELS 3 Zrotation Xrotation Yrotation
        End Site
        {
          OFFSET 0 -5 15
        }
      }
    }
  }
  JOINT pelvis_left_femur
  {
    OFFSET 10.78128 -3.44521 -0.5502486
    CHANNELS 3 Zrotation Xrotation Yrotation
    JOINT left_femur_tibia
    {
      OFFSET 0.8047443 -44.0398 -0.1307829
      CHANNELS 3 Zrotation Xrotation Yrotation
      JOINT left_tibia_foot
      {
        OFFSET -4.370144 -48.10324 -4.275266
        CHANNELS 3 Zrotation Xrotation Yrotation
        End Site
        {
          OFFSET 0 -5 15
        }
      }
    }
  }
  JOINT pelvis_spine1
  {
    OFFSET 0 6.468898 -3.129235
    CHANNELS 3 Zrotation Xrotation Yrotation
    JOINT spine1
    {
      OFFSET 0 23.15396 4.99043
      CHANNELS 3 Zrotation Xrotation Yrotation
      JOINT spine2
      {
        OFFSET 0 20.79997 -5.064912
        CHANNELS 3 Zrotation Xrotation Yrotation
        JOINT neck
        {
          OFFSET 0 14.38658 9.616178
          CHANNELS 3 Zrotation Xrotation Yrotation
          End Site
          {
            OFFSET 0 20 0
          }
        }
      }
      JOINT right_manubrium
      {
        OFFSET -5.722621 16.35077 3.967754
        CHANNELS 3 Zrotation Xrotation Yrotation
        JOINT right_clavicle
        {
          OFFSET -13.16364 1.694482 -4.693211
          CHANNELS 3 Zrotation Xrotation Yrotation
          JOINT right_humerus
          {
            OFFSET -28.5034 -0.3100689 -2.792744
            CHANNELS 3 Zrotation Xrotation Yrotation
            JOINT right_radius
            {
              OFFSET -25.15693 0.02248979 -1.271978
              CHANNELS 3 Zrotation Xrotation Yrotation
              End Site
              {
                OFFSET -15 0 0
              }
            }
          }
        }
      }
      JOINT left_manubrium
      {
        OFFSET 5.722621 16.35077 3.967754
        CHANNELS 3 Zrotation Xrotation Yrotation
        JOINT left_clavicle
        {
          OFFSET 13.16364 1.694482 -4.693211
          CHANNELS 3 Zrotation Xrotation Yrotation
          JOINT left_humerus
          {
            OFFSET 29.39168 -1.063119 -2.237045
            CHANNELS 3 Zrotation Xrotation Yrotation
            JOINT left_radius
            {
              OFFSET 24.59957 -0.9528479 0.9047498
              CHANNELS 3 Zrotation Xrotation Yrotation
              End Site
              {
                OFFSET 15 -0 -0
              }
            }
          }
        }
      }
    }
  }
}
MOTION
Frames: 23
Frame Time: 0.0416666666667
175.2713 100.1819 3129.718 0.6196818 -5.204919 -2.705914 1.734608 18.78989 4.168488 -0 21.00419 -0 -0.4259905 -11.4858 -0.9249976 0.05000881 -25.47981 -4.521674 -0 17.59461 -0 -5.122442 -7.256889 20.0545 -0.2691954 -2.554592 7.228919 0.8064823 11.61839 -5.977439 2.674956 20.45877 0.3233334 -1.496289 -23.04966 6.269614 0.002466887 -26.85795 9.550406 88.22811 26.63623 -13.44673 -0 0 24.76206 -11.02948 9.924807 8.266808 2.023978 -17.78803 -3.48047 -97.21386 22.57148 36.82308 0 0 -9.942176 1.259816 16.80574 15.00798
176.0801 99.84185 3136.825 1.13287 -5.360538 -2.776455 0.6870311 18.39354 4.142185 -0 27.7448 -0 -0.3069419 -7.604689 -0.9563189 -1.692643 -23.39033 -5.816488 -0 17.977 -0 -4.124579 -7.763144 20.13065 -0.2297731 -2.554551 7.290244 0.8424082 11.68342 -5.974261 2.688346 20.40071 0.01533419 -1.758306 -22.96389 6.09629 -0.171212 -27.30905 9.558529 88.04329 26.54288 -12.7681 -0 0 25.35199 -11.01685 10.09431 8.587762 1.752207 -17.61297 -3.498958 -97.15285 22.06033 37.46917 0 0 -9.569334 1.340118 17.15809 14.9384
176.9313 100.0344 3143.976 1.653766 -5.7796 -2.499079 -0.08659453 16.64185 4.023484 -0 35.52281 -0 -0.3762603 -3.027897 -1.307054 -3.343344 -20.32654 -6.914714 -0 19.28328 -0 -2.704977 -8.285687 20.03175 -0.1995082 -2.523473 7.258435 0.9116921 11.752 -6.076379 2.689309 20.38281 -0.143037 -1.912894 -22.9805 6.003804 -0.3496495 -27.56879 9.603577 88.05862 26.45381 -12.41629 -0 0 25.57673 -11.08458 10.14514 8.751472 1.602264 -17.60093 -3.466432 -96.87851 21.57834 37.57231 0 0 -9.237444 1.644463 17.50406 14.50146
177.8092 100.7728 3150.968 2.043541 -6.340943 -1.862631 -0.47152 13.43029 3.771074 -0 43.38481 -0 -0.5289418 1.406835 -1.978419 -4.639438 -16.42493 -7.658783 -0 20.58247 -0 -1.202313 -8.900118 19.69341 -0.1882934 -2.468842 7.135491 1.021256 11.80641 -6.277829 2.67684 20.41371 -0.1507518 -1.959346 -23.11435 5.99357 -0.5242791 -27.64054 9.69303 88.22989 26.37565 -12.35569 -0 0 25.46553 -11.23494 10.05814 8.75196 1.580639 -17.73269 -3.358552 -96.44215 21.11457 37.1749 0 0 -8.845546 2.184935 17.87629 13.64797
178.6919 101.9273 3157.606 2.195295 -6.881164 -0.9267126 -0.4828803 8.767903 3.446001 -0 49.94057 -0 -0.7115362 4.749932 -2.932773 -5.446241 -11.89389 -8.065435 -0 21.03987 -0 -0.0506672 -9.749898 19.13436 -0.2057516 -2.400878 6.925254 1.18284 11.82377 -6.571058 2.642671 20.49136 -0.006469102 -1.898961 -23.37557 6.059741 -0.6876536 -27.54763 9.844074 88.48353 26.29529 -12.50407 -0 0 25.09794 -11.49555 9.84881 8.608788 1.691629 -17.98049 -3.139512 -95.9005 20.62039 36.3404 0 0 -8.269816 2.968757 18.29904 12.30633
179.5536 103.2153 3163.766 2.088737 -7.237029 0.1860856 -0.2649876 2.889406 3.167994 -0 53.59033 -0 -0.9484592 6.280749 -4.037414 -5.76752 -7.029825 -8.281964 -0 20.13477 -0 0.4784696 -10.94089 18.44634 -0.2599254 -2.330421 6.638108 1.407528 11.78204 -6.941612 2.572572 20.60607 0.2880047 -1.736322 -23.76248 6.187647 -0.836948 -27.33387 10.08208 88.72581 26.18277 -12.73794 -0 0 24.59923 -11.91753 9.564312 8.36599 1.932379 -18.30617 -2.770898 -95.32172 20.01737 35.1669 0 0 -7.373386 3.992479 18.78097 10.39899
180.3688 104.2649 3169.454 1.819141 -7.335866 1.327772 -0.01044676 -3.654049 2.931424 -0 53.05156 -0 -1.313188 5.887527 -5.069193 -5.728477 -2.153329 -8.453449 -0 17.92056 -0 0.431318 -12.48107 17.71846 -0.3572646 -2.266964 6.293394 1.698431 11.66497 -7.362669 2.451048 20.74731 0.726931 -1.476966 -24.25753 6.357786 -0.9696935 -27.04779 10.43216 88.86329 26.0074 -12.92765 -0 0 24.10699 -12.55203 9.265611 8.073987 2.292054 -18.66401 -2.226049 -94.79238 19.23583 33.78407 0 0 -6.042048 5.228886 19.30708 7.883824
181.1153 104.7551 3174.805 1.554266 -7.219276 2.370301 0.1316198 -10.09974 2.499582 -0 48.02701 -0 -1.821524 4.16229 -5.824067 -5.527371 2.475768 -8.593359 -0 15.08131 -0 0.06711089 -14.30484 16.96131 -0.5022023 -2.218718 5.913749 2.045139 11.46328 -7.796681 2.268723 20.90635 1.307485 -1.119104 -24.83198 6.558633 -1.068261 -26.70825 10.90126 88.83599 25.76348 -13.00952 -0 0 23.70551 -13.40176 9.004421 7.756646 2.760111 -19.01755 -1.507625 -94.40721 18.28567 32.30722 0 0 -4.273776 6.603992 19.82821 4.829204
181.7778 104.5472 3180.032 1.43808 -6.933628 3.242073 0.09643905 -15.78963 1.62483 -0 39.52327 -0 -2.35001 2.083399 -6.2389 -5.366156 6.684515 -8.596486 -0 12.61902 -0 -0.3606899 -16.29367 16.13089 -0.6938068 -2.194629 5.51279 2.423628 11.17166 -8.20848 2.029772 21.06542 2.033881 -0.6508103 -25.45646 6.798927 -1.090559 -26.2802 11.45411 88.64587 25.48968 -13.04444 -0 0 23.372 -14.37383 8.813649 7.397329 3.334998 -19.36367 -0.6594514 -94.22251 17.308 30.7707 0 0 -2.298159 7.9764 20.26046 1.497014
182.353 103.7107 3185.37 1.517288 -6.46581 3.941277 -0.0757978 -20.35444 0.3571014 -0 29.41971 -0 -2.722509 0.5405645 -6.397499 -5.373154 10.37098 -8.370869 -0 11.40471 -0 -0.7369046 -18.23225 15.22477 -0.9202439 -2.203575 5.090926 2.799904 10.78866 -8.580008 1.755668 21.18362 2.901224 -0.06651295 -26.10241 7.101338 -0.9919821 -25.69921 12.00254 88.35747 25.26135 -13.18917 -0 0 22.99569 -15.2913 8.713445 6.974272 4.017325 -19.7362 0.2370973 -94.19755 16.53383 29.11776 0 0 -0.5990883 9.153098 20.50767 -1.654342
182.8442 102.4589 3191.032 1.730017 -5.846417 4.512119 -0.2211953 -23.58499 -0.9429827 -0 19.73223 -0 -2.873457 0.02007079 -6.454657 -5.540492 13.48268 -7.929534 -0 11.9871 -0 -1.126207 -19.7661 14.31062 -1.155175 -2.247929 4.651072 3.132515 10.33088 -8.909699 1.482856 21.20622 3.864686 0.6069895 -26.72489 7.475387 -0.765329 -24.93497 12.43096 88.07476 25.15347 -13.59538 -0 0 22.46123 -15.97779 8.71512 6.510139 4.787972 -20.17527 1.077344 -94.19113 16.16084 27.28336 -0 0 0.2605688 9.956382 20.49311 -4.109692
183.2505 101.0718 3197.161 1.933082 -5.245219 4.999615 -0.06964281 -25.29356 -1.785351 -0 12.19789 -0 -2.887536 0.5006631 -6.572457 -5.708842 15.95641 -7.388964 -0 14.64134 -0 -1.704876 -20.42565 13.49304 -1.360454 -2.317743 4.219315 3.37662 9.852444 -9.197292 1.254402 21.09985 4.826571 1.301785 -27.25003 7.89471 -0.4536774 -24.03361 12.64822 87.91496 25.20086 -14.3326 -0 0 21.71663 -16.34094 8.813535 6.070403 5.591123 -20.69001 1.747605 -94.03859 16.25865 25.29486 0 0 -0.0865796 10.29613 20.17894 -5.496999
183.5627 99.84283 3203.802 1.95521 -4.92636 5.405366 0.6447227 -25.36027 -1.755549 -0 8.017524 -0 -2.919267 1.502502 -6.860498 -5.63013 17.62867 -6.914036 -0 19.4139 -0 -2.570939 -19.76105 12.92158 -1.497131 -2.392535 3.845301 3.49584 9.440862 -9.431792 1.10691 20.88119 5.661741 1.927925 -27.59503 8.30167 -0.1233311 -23.10287 12.6268 87.97786 25.38364 -15.37645 -0 0 20.78387 -16.38722 8.979838 5.714593 6.338169 -21.24682 2.144851 -93.65106 16.77213 23.299 0 0 -1.640735 10.19104 19.57598 -5.703925
183.7719 99.0389 3210.877 1.686549 -5.103603 5.660213 1.982875 -23.84085 -0.7396716 -0 7.48448 -0 -3.085197 2.314362 -7.308677 -5.123712 18.20397 -6.626359 -0 26.09815 -0 -3.602175 -17.60135 12.794 -1.540393 -2.449374 3.581659 3.476159 9.182577 -9.591998 1.058125 20.61189 6.264091 2.406161 -27.70679 8.634017 0.1727606 -22.26235 12.40397 88.30711 25.64306 -16.62907 -0 0 19.73968 -16.18203 9.167758 5.460665 6.931857 -21.78257 2.206181 -93.06212 17.58589 21.51193 0 0 -4.061664 9.73483 18.74714 -4.860007
183.8869 98.85505 3218.188 1.17042 -5.80123 5.642067 3.66927 -20.98124 0.9543627 -0 9.741825 -0 -3.376531 2.353528 -7.768704 -4.253345 17.34928 -6.513154 -0 34.19239 -0 -4.552999 -14.29251 13.24611 -1.488914 -2.471906 3.463266 3.329325 9.125173 -9.654551 1.103604 20.36597 6.579779 2.692672 -27.58276 8.850755 0.4140902 -21.60139 12.05298 88.86497 25.91525 -17.94609 -0 0 18.69503 -15.80143 9.330815 5.291079 7.297781 -22.22556 1.931429 -92.40267 18.58494 20.14826 0 0 -6.840521 9.043088 17.79575 -3.230912
183.9405 99.35802 3225.478 0.6180331 -6.832797 5.254499 5.195147 -17.12768 2.742193 -0 13.0745 -0 -3.637366 1.444908 -8.025119 -3.346727 14.85957 -6.43285 -0 42.88085 -0 -5.271181 -10.67254 14.22099 -1.362965 -2.456053 3.501669 3.084093 9.264628 -9.601103 1.223754 20.19813 6.608867 2.782715 -27.26209 8.940136 0.6100102 -21.16707 11.65016 89.54072 26.16235 -19.16506 -0 0 17.77788 -15.30299 9.43692 5.179544 7.404169 -22.5114 1.380876 -91.84237 19.67891 19.37872 0 0 -9.484728 8.217482 16.84239 -1.10887
183.9753 100.4402 3232.505 0.3100692 -7.926204 4.514847 6.094276 -12.61959 4.086013 -0 15.69776 -0 -3.674865 -0.1787035 -7.915019 -2.772673 10.7679 -6.250497 -0 51.03126 -0 -5.766615 -7.742899 15.49219 -1.194714 -2.410693 3.691093 2.774899 9.557268 -9.421711 1.393859 20.13256 6.384344 2.696478 -26.80473 8.911087 0.7806548 -20.97747 11.25564 90.18785 26.38078 -20.12867 -0 0 17.1171 -14.72258 9.471242 5.111044 7.259976 -22.59149 0.6524384 -91.53922 20.79293 19.32203 0 0 -11.6208 7.336521 16.00553 1.244304
184.0173 101.8215 3239.115 0.4172708 -8.875684 3.564697 6.203518 -7.737463 4.745832 -0 16.5522 -0 -3.480566 -2.141851 -7.418142 -2.63007 5.343567 -5.956387 -0 57.20191 -0 -6.121456 -6.212363 16.79988 -1.015971 -2.353433 4.014269 2.433272 9.939911 -9.117179 1.591446 20.16763 5.948196 2.459835 -26.27396 8.780234 0.9266277 -21.04014 10.90478 90.67786 26.57816 -20.70541 -0 0 16.82125 -14.09314 9.431503 5.090444 6.897982 -22.44099 -0.1487931 -91.59967 21.84995 20.03732 0 0 -13.03286 6.450979 15.38281 3.62067
184.0679 103.1218 3245.277 0.8271874 -9.54695 2.578046 5.770162 -2.736909 4.828287 -0 15.63661 -0 -3.313016 -4.272791 -6.654382 -2.592245 -0.998111 -5.5981 -0 59.76106 -0 -6.384023 -6.104531 17.95002 -0.8469277 -2.302516 4.444437 2.080931 10.34938 -8.701563 1.800109 20.28132 5.338314 2.092526 -25.72136 8.563323 1.008771 -21.35969 10.60425 90.94956 26.73668 -20.81541 -0 0 16.9527 -13.46681 9.329284 5.14691 6.357992 -22.06721 -0.9401467 -92.04279 22.76842 21.5009 0 0 -13.68727 5.569615 15.01876 5.899772
184.1367 103.9903 3251.081 1.167918 -9.757356 1.6441 5.276988 2.086028 4.635576 -0 13.7178 -0 -3.391189 -6.706016 -5.765713 -2.099554 -7.770708 -5.106272 -0 57.43452 -0 -6.510373 -6.70973 18.82742 -0.6950916 -2.271427 4.946171 1.732406 10.73417 -8.203825 2.007414 20.43161 4.59496 1.61457 -25.17902 8.275102 0.9793329 -21.92586 10.34242 91.00074 26.81932 -20.44554 -0 0 17.51705 -12.90454 9.201994 5.326148 5.687294 -21.50855 -1.668295 -92.79904 23.47331 23.59351 0 0 -13.71311 4.673891 14.88967 8.045237
184.2723 104.2387 3256.706 1.130373 -9.32551 0.7537389 5.025153 6.446978 4.430392 -0 11.75877 -0 -3.520616 -9.509949 -4.806683 -0.872536 -14.34257 -4.336907 -0 50.367 -0 -6.419025 -7.138598 19.38252 -0.5666437 -2.271094 5.475129 1.410485 11.05377 -7.66899 2.199487 20.56595 3.774724 1.061311 -24.66939 7.935625 0.8457461 -22.69156 10.11242 90.82926 26.82764 -19.64295 -0 0 18.46852 -12.42995 9.110562 5.655654 4.951973 -20.8234 -2.288261 -93.75214 23.90762 26.11106 0 0 -13.30583 3.780869 14.94956 10.01315
184.536 103.8846 3262.368 0.7579274 -8.324673 -0.1053246 4.901638 10.2204 4.312261 -0 10.54885 -0 -3.286095 -12.29432 -3.786118 0.7380158 -19.92245 -3.379148 -0 40.60535 -0 -6.158245 -7.052159 19.64539 -0.4692475 -2.307986 5.983066 1.146822 11.28319 -7.151624 2.36302 20.64577 2.940829 0.4778842 -24.21293 7.569901 0.6679988 -23.5768 9.918416 90.43246 26.80807 -18.50481 -0 0 19.71142 -12.02118 9.107554 6.116766 4.222617 -20.07996 -2.763152 -94.77189 24.04982 28.79728 0 0 -12.64092 2.95849 15.17319 11.7108
184.9566 103.0884 3268.244 0.3426937 -7.11411 -0.9082119 4.598189 13.42228 4.254864 -0 10.59517 -0 -2.571398 -14.36197 -2.767112 1.9914 -23.87307 -2.653492 -0 30.99587 -0 -5.91518 -6.736898 19.73238 -0.4021617 -2.37516 6.430034 0.961472 11.42478 -6.700062 2.490929 20.66008 2.14437 -0.09716754 -23.82118 7.20105 0.4944238 -24.49832 9.765016 89.86153 26.79123 -17.16739 -0 0 21.10819 -11.6599 9.212295 6.660748 3.546795 -19.34819 -3.088546 -95.72379 23.924 31.39344 0 0 -11.86663 2.2703 15.52998 13.06502
